{"title":"WINNIE THE POOH-HEFFALUMP MOVIE BY KIDZCORNER IN H.264","uid":5061589,"size":735683677,"categoryP":"video","categoryS":"movies","magnet":"?xt=urn:btih:e68cd4b42a39dd6e3564d52408abf6311d869aa8&amp;dn=WINNIE+THE+POOH-HEFFALUMP+MOVIE+BY+KIDZCORNER+IN+H.264&amp;tr=udp%3A%2F%2Ftracker.openbittorrent.com%3A80&amp;tr=udp%3A%2F%2Fopen.demonii.com%3A1337&amp;tr=udp%3A%2F%2Ftracker.coppersurfer.tk%3A6969&amp;tr=udp%3A%2F%2Fexodus.desync.com%3A6969","seeders":5,"leechers":2,"uploader":"alanwatson","files":-1,"time":1250728174,"description":"Fear and trepidation run throughout the Hundred Acre Woods when a strange noise, emanating from a Heffalump is heard. While Pooh, Tigger and friends are convinced the new arrival is an horrific beast and set off on a quest to capture him, Roo comes face to face with Lumpy the Heffalump and discovers that they couldn't be more wrong...\n\nFormat : MPEG-4\nFormat profile : Base Media / Version 2\nCodec ID : mp42\nFile size : 700 MiB\nDuration : 1h 5mn\nOverall bit rate : 1 499 Kbps\n\n\nVideo\nID : 1\nFormat : AVC\nFormat/Info : Advanced Video Codec\nFormat profile : &lt;a class=&quot;__cf_email__&quot; href=&quot;/cdn-cgi/l/email-protection&quot; data-cfemail=&quot;014c60686f414d352f31&quot;&gt;[email&amp;#160;protected]&lt;/a&gt;&lt;script cf-hash='f9e31' type=&quot;text/javascript&quot;&gt;\n/* &lt;![CDATA[ */!function(){try{var t=&quot;currentScript&quot;in document?document.currentScript:function(){for(var t=document.getElementsByTagName(&quot;script&quot;),e=t.length;e--;)if(t[e].getAttribute(&quot;cf-hash&quot;))return t[e]}();if(t&amp;&amp;t.previousSibling){var e,r,n,i,c=t.previousSibling,a=c.getAttribute(&quot;data-cfemail&quot;);if(a){for(e=&quot;&quot;,r=parseInt(a.substr(0,2),16),n=2;a.length-n;n+=2)i=parseInt(a.substr(n,2),16)^r,e+=String.fromCharCode(i);e=document.createTextNode(e),c.parentNode.replaceChild(e,c)}}}catch(u){}}();/* ]]&gt; */&lt;/script&gt;\nFormat settings, CABAC : Yes\nFormat settings, ReFrames : 3 frames\nCodec ID : avc1\nCodec ID/Info : Advanced Video Coding\nDuration : 1h 5mn\nBit rate mode : Variable\nBit rate : 1 336 Kbps\nWidth : 720 pixels\nHeight : 572 pixels\nDisplay aspect ratio : 16/9\nFrame rate mode : Variable\nFrame rate : 25.000 fps\nMinimum frame rate : 12.500 fps\nMaximum frame rate : 25.000 fps\nResolution : 24 bits\nColorimetry : 4:2:0\nScan type : Progressive\nBits/(Pixel*Frame) : 0.130\nStream size : 623 MiB (89%)\nWriting library : x264 core 65\n\nAudio\nID : 2\nFormat : AAC\nFormat/Info : Advanced Audio Codec\nFormat version : Version 4\nFormat profile : LC\nFormat settings, SBR : No\nCodec ID : 40\nDuration : 1h 5mn\nBit rate mode : Variable\nBit rate : 159 Kbps\nMaximum bit rate : 211 Kbps\nChannel(s) : 2 channels\nChannel positions : L R\nSampling rate : 48.0 KHz\nResolution : 16 bits\nStream size : 74.4 MiB (11%)\nLanguage : English\nEncoded date : UTC 2009-08-19 18:00:50\nTagged date : UTC 2009-08-19 20:08:49\n","torrent":{"xt":"urn:btih:e68cd4b42a39dd6e3564d52408abf6311d869aa8","amp;dn":"WINNIE+THE+POOH-HEFFALUMP+MOVIE+BY+KIDZCORNER+IN+H.264","amp;tr":["udp%3A%2F%2Ftracker.openbittorrent.com%3A80","udp%3A%2F%2Fopen.demonii.com%3A1337","udp%3A%2F%2Ftracker.coppersurfer.tk%3A6969","udp%3A%2F%2Fexodus.desync.com%3A6969"],"infoHash":"e68cd4b42a39dd6e3564d52408abf6311d869aa8","infoHashBuffer":{"type":"Buffer","data":[230,140,212,180,42,57,221,110,53,100,213,36,8,171,246,49,29,134,154,168]},"announce":[],"urlList":[]}}